<mxfile host="app.diagrams.net" agent="Mozilla/5.0 (Windows NT 10.0; Win64; x64) AppleWebKit/537.36 (KHTML, like Gecko) Chrome/141.0.0.0 Safari/537.36 Edg/141.0.0.0" version="28.2.8">
  <diagram name="PÃ¡gina-1" id="BjMXj5KPBFEAHgKCB57t">
    <mxGraphModel dx="2668" dy="2109" grid="1" gridSize="10" guides="1" tooltips="1" connect="1" arrows="1" fold="1" page="1" pageScale="1" pageWidth="827" pageHeight="1169" math="0" shadow="0">
      <root>
        <mxCell id="0" />
        <mxCell id="1" parent="0" />
        <mxCell id="um6rf0IN5SyPP_mlTnQG-46" style="edgeStyle=none;curved=1;rounded=0;orthogonalLoop=1;jettySize=auto;html=1;entryX=0.5;entryY=0;entryDx=0;entryDy=0;fontSize=12;startSize=8;endSize=8;" edge="1" parent="1" source="d5WgG2kgld3kzEVCsPHN-1" target="um6rf0IN5SyPP_mlTnQG-45">
          <mxGeometry relative="1" as="geometry" />
        </mxCell>
        <mxCell id="um6rf0IN5SyPP_mlTnQG-83" style="edgeStyle=none;curved=1;rounded=0;orthogonalLoop=1;jettySize=auto;html=1;entryX=0;entryY=0.5;entryDx=0;entryDy=0;fontSize=12;startSize=8;endSize=8;" edge="1" parent="1" source="um6rf0IN5SyPP_mlTnQG-44" target="um6rf0IN5SyPP_mlTnQG-82">
          <mxGeometry relative="1" as="geometry" />
        </mxCell>
        <mxCell id="um6rf0IN5SyPP_mlTnQG-47" style="edgeStyle=none;curved=1;rounded=0;orthogonalLoop=1;jettySize=auto;html=1;fontSize=12;startSize=8;endSize=8;exitX=0.5;exitY=1;exitDx=0;exitDy=0;" edge="1" parent="1" source="um6rf0IN5SyPP_mlTnQG-45" target="um6rf0IN5SyPP_mlTnQG-36">
          <mxGeometry relative="1" as="geometry" />
        </mxCell>
        <mxCell id="um6rf0IN5SyPP_mlTnQG-45" value="Realizar" style="rhombus;whiteSpace=wrap;html=1;" vertex="1" parent="1">
          <mxGeometry x="240" y="250" width="100" height="80" as="geometry" />
        </mxCell>
        <mxCell id="um6rf0IN5SyPP_mlTnQG-63" style="edgeStyle=none;curved=1;rounded=0;orthogonalLoop=1;jettySize=auto;html=1;fontSize=12;startSize=8;endSize=8;exitX=1;exitY=0.5;exitDx=0;exitDy=0;entryX=0;entryY=0.75;entryDx=0;entryDy=0;" edge="1" parent="1" source="um6rf0IN5SyPP_mlTnQG-61" target="um6rf0IN5SyPP_mlTnQG-29">
          <mxGeometry relative="1" as="geometry" />
        </mxCell>
        <mxCell id="um6rf0IN5SyPP_mlTnQG-112" style="edgeStyle=none;curved=1;rounded=0;orthogonalLoop=1;jettySize=auto;html=1;entryX=1;entryY=1;entryDx=0;entryDy=0;fontSize=12;startSize=8;endSize=8;exitX=0;exitY=0.5;exitDx=0;exitDy=0;" edge="1" parent="1" source="um6rf0IN5SyPP_mlTnQG-61" target="um6rf0IN5SyPP_mlTnQG-9">
          <mxGeometry relative="1" as="geometry" />
        </mxCell>
        <mxCell id="um6rf0IN5SyPP_mlTnQG-61" value="Fazer" style="rhombus;whiteSpace=wrap;html=1;" vertex="1" parent="1">
          <mxGeometry x="960" y="-10" width="100" height="80" as="geometry" />
        </mxCell>
        <mxCell id="um6rf0IN5SyPP_mlTnQG-69" style="edgeStyle=none;curved=1;rounded=0;orthogonalLoop=1;jettySize=auto;html=1;entryX=0.75;entryY=0;entryDx=0;entryDy=0;fontSize=12;startSize=8;endSize=8;" edge="1" parent="1" source="um6rf0IN5SyPP_mlTnQG-67" target="um6rf0IN5SyPP_mlTnQG-36">
          <mxGeometry relative="1" as="geometry" />
        </mxCell>
        <mxCell id="um6rf0IN5SyPP_mlTnQG-67" value="Pedir" style="rhombus;whiteSpace=wrap;html=1;" vertex="1" parent="1">
          <mxGeometry x="540" y="160" width="100" height="80" as="geometry" />
        </mxCell>
        <mxCell id="um6rf0IN5SyPP_mlTnQG-68" style="edgeStyle=none;curved=1;rounded=0;orthogonalLoop=1;jettySize=auto;html=1;entryX=1;entryY=0;entryDx=0;entryDy=0;fontSize=12;startSize=8;endSize=8;" edge="1" parent="1" source="um6rf0IN5SyPP_mlTnQG-9" target="um6rf0IN5SyPP_mlTnQG-67">
          <mxGeometry relative="1" as="geometry" />
        </mxCell>
        <mxCell id="um6rf0IN5SyPP_mlTnQG-84" style="edgeStyle=none;curved=1;rounded=0;orthogonalLoop=1;jettySize=auto;html=1;entryX=0;entryY=0.5;entryDx=0;entryDy=0;fontSize=12;startSize=8;endSize=8;" edge="1" parent="1" source="um6rf0IN5SyPP_mlTnQG-82" target="um6rf0IN5SyPP_mlTnQG-36">
          <mxGeometry relative="1" as="geometry" />
        </mxCell>
        <mxCell id="um6rf0IN5SyPP_mlTnQG-82" value="Efetuar" style="rhombus;whiteSpace=wrap;html=1;" vertex="1" parent="1">
          <mxGeometry x="190" y="490" width="100" height="80" as="geometry" />
        </mxCell>
        <mxCell id="um6rf0IN5SyPP_mlTnQG-70" value="1" style="text;html=1;whiteSpace=wrap;strokeColor=none;fillColor=none;align=center;verticalAlign=middle;rounded=0;fontSize=16;" vertex="1" parent="1">
          <mxGeometry x="595" y="40" width="60" height="30" as="geometry" />
        </mxCell>
        <mxCell id="um6rf0IN5SyPP_mlTnQG-13" value="precoVenda" style="ellipse;whiteSpace=wrap;html=1;fontStyle=0" vertex="1" parent="1">
          <mxGeometry x="820" y="-170" width="120" height="80" as="geometry" />
        </mxCell>
        <mxCell id="um6rf0IN5SyPP_mlTnQG-9" value="Produto" style="rounded=0;whiteSpace=wrap;html=1;" vertex="1" parent="1">
          <mxGeometry x="630" y="-30" width="120" height="60" as="geometry" />
        </mxCell>
        <mxCell id="um6rf0IN5SyPP_mlTnQG-17" style="edgeStyle=none;curved=1;rounded=0;orthogonalLoop=1;jettySize=auto;html=1;fontSize=12;startSize=8;endSize=8;" edge="1" parent="1" source="um6rf0IN5SyPP_mlTnQG-10" target="um6rf0IN5SyPP_mlTnQG-9">
          <mxGeometry relative="1" as="geometry" />
        </mxCell>
        <mxCell id="um6rf0IN5SyPP_mlTnQG-10" value="idProduto &lt;span&gt;PK&lt;/span&gt;" style="ellipse;whiteSpace=wrap;html=1;fontStyle=4" vertex="1" parent="1">
          <mxGeometry x="430" y="-40" width="120" height="80" as="geometry" />
        </mxCell>
        <mxCell id="um6rf0IN5SyPP_mlTnQG-16" style="edgeStyle=none;curved=1;rounded=0;orthogonalLoop=1;jettySize=auto;html=1;fontSize=12;startSize=8;endSize=8;" edge="1" parent="1" source="um6rf0IN5SyPP_mlTnQG-11" target="um6rf0IN5SyPP_mlTnQG-9">
          <mxGeometry relative="1" as="geometry" />
        </mxCell>
        <mxCell id="um6rf0IN5SyPP_mlTnQG-11" value="nomeProduto" style="ellipse;whiteSpace=wrap;html=1;fontStyle=0" vertex="1" parent="1">
          <mxGeometry x="440" y="-150" width="120" height="80" as="geometry" />
        </mxCell>
        <mxCell id="um6rf0IN5SyPP_mlTnQG-15" style="edgeStyle=none;curved=1;rounded=0;orthogonalLoop=1;jettySize=auto;html=1;fontSize=12;startSize=8;endSize=8;" edge="1" parent="1" source="um6rf0IN5SyPP_mlTnQG-12" target="um6rf0IN5SyPP_mlTnQG-9">
          <mxGeometry relative="1" as="geometry" />
        </mxCell>
        <mxCell id="um6rf0IN5SyPP_mlTnQG-12" value="tipo" style="ellipse;whiteSpace=wrap;html=1;fontStyle=0" vertex="1" parent="1">
          <mxGeometry x="560" y="-200" width="120" height="80" as="geometry" />
        </mxCell>
        <mxCell id="um6rf0IN5SyPP_mlTnQG-14" style="edgeStyle=none;curved=1;rounded=0;orthogonalLoop=1;jettySize=auto;html=1;fontSize=12;startSize=8;endSize=8;" edge="1" parent="1" source="um6rf0IN5SyPP_mlTnQG-13" target="um6rf0IN5SyPP_mlTnQG-9">
          <mxGeometry relative="1" as="geometry" />
        </mxCell>
        <mxCell id="um6rf0IN5SyPP_mlTnQG-65" value="N" style="text;html=1;whiteSpace=wrap;strokeColor=none;fillColor=none;align=center;verticalAlign=middle;rounded=0;fontSize=16;" vertex="1" parent="1">
          <mxGeometry x="1150" y="-15" width="60" height="30" as="geometry" />
        </mxCell>
        <mxCell id="um6rf0IN5SyPP_mlTnQG-71" value="N" style="text;html=1;whiteSpace=wrap;strokeColor=none;fillColor=none;align=center;verticalAlign=middle;rounded=0;fontSize=16;" vertex="1" parent="1">
          <mxGeometry x="540" y="450" width="60" height="30" as="geometry" />
        </mxCell>
        <mxCell id="um6rf0IN5SyPP_mlTnQG-36" value="Pedido" style="rounded=0;whiteSpace=wrap;html=1;" vertex="1" parent="1">
          <mxGeometry x="420" y="490" width="160" height="60" as="geometry" />
        </mxCell>
        <mxCell id="um6rf0IN5SyPP_mlTnQG-50" value="N" style="text;html=1;whiteSpace=wrap;strokeColor=none;fillColor=none;align=center;verticalAlign=middle;rounded=0;fontSize=16;" vertex="1" parent="1">
          <mxGeometry x="430" y="430" width="60" height="30" as="geometry" />
        </mxCell>
        <mxCell id="um6rf0IN5SyPP_mlTnQG-54" value="1" style="text;html=1;whiteSpace=wrap;strokeColor=none;fillColor=none;align=center;verticalAlign=middle;rounded=0;fontSize=16;" vertex="1" parent="1">
          <mxGeometry x="350" y="575" width="60" height="30" as="geometry" />
        </mxCell>
        <mxCell id="um6rf0IN5SyPP_mlTnQG-52" style="edgeStyle=none;curved=1;rounded=0;orthogonalLoop=1;jettySize=auto;html=1;fontSize=12;startSize=8;endSize=8;" edge="1" parent="1" source="um6rf0IN5SyPP_mlTnQG-18" target="um6rf0IN5SyPP_mlTnQG-51">
          <mxGeometry relative="1" as="geometry" />
        </mxCell>
        <mxCell id="um6rf0IN5SyPP_mlTnQG-110" style="edgeStyle=none;curved=1;rounded=0;orthogonalLoop=1;jettySize=auto;html=1;fontSize=12;startSize=8;endSize=8;" edge="1" parent="1" source="um6rf0IN5SyPP_mlTnQG-51" target="um6rf0IN5SyPP_mlTnQG-9">
          <mxGeometry relative="1" as="geometry" />
        </mxCell>
        <mxCell id="um6rf0IN5SyPP_mlTnQG-51" value="Movimentar" style="rhombus;whiteSpace=wrap;html=1;" vertex="1" parent="1">
          <mxGeometry x="770" y="-280" width="100" height="80" as="geometry" />
        </mxCell>
        <mxCell id="um6rf0IN5SyPP_mlTnQG-111" value="1" style="text;html=1;whiteSpace=wrap;strokeColor=none;fillColor=none;align=center;verticalAlign=middle;rounded=0;fontSize=16;" vertex="1" parent="1">
          <mxGeometry x="725" y="-100" width="60" height="30" as="geometry" />
        </mxCell>
        <mxCell id="um6rf0IN5SyPP_mlTnQG-113" value="1" style="text;html=1;whiteSpace=wrap;strokeColor=none;fillColor=none;align=center;verticalAlign=middle;rounded=0;fontSize=16;" vertex="1" parent="1">
          <mxGeometry x="760" y="40" width="60" height="30" as="geometry" />
        </mxCell>
        <mxCell id="um6rf0IN5SyPP_mlTnQG-116" value="" style="group" vertex="1" connectable="0" parent="1">
          <mxGeometry x="690" y="-660" width="655" height="320" as="geometry" />
        </mxCell>
        <mxCell id="um6rf0IN5SyPP_mlTnQG-18" value="Movimentacao_Estoque&amp;nbsp;" style="rounded=0;whiteSpace=wrap;html=1;" vertex="1" parent="um6rf0IN5SyPP_mlTnQG-116">
          <mxGeometry x="250" y="190" width="160" height="60" as="geometry" />
        </mxCell>
        <mxCell id="um6rf0IN5SyPP_mlTnQG-24" style="edgeStyle=none;curved=1;rounded=0;orthogonalLoop=1;jettySize=auto;html=1;entryX=0.25;entryY=0;entryDx=0;entryDy=0;fontSize=12;startSize=8;endSize=8;" edge="1" parent="um6rf0IN5SyPP_mlTnQG-116" source="um6rf0IN5SyPP_mlTnQG-19" target="um6rf0IN5SyPP_mlTnQG-18">
          <mxGeometry relative="1" as="geometry">
            <Array as="points">
              <mxPoint x="250" y="130" />
            </Array>
          </mxGeometry>
        </mxCell>
        <mxCell id="um6rf0IN5SyPP_mlTnQG-19" value="idMovimentacao PK" style="ellipse;whiteSpace=wrap;html=1;fontStyle=4" vertex="1" parent="um6rf0IN5SyPP_mlTnQG-116">
          <mxGeometry x="100" width="120" height="80" as="geometry" />
        </mxCell>
        <mxCell id="um6rf0IN5SyPP_mlTnQG-20" value="idProduto FK" style="ellipse;whiteSpace=wrap;html=1;fontStyle=4" vertex="1" parent="um6rf0IN5SyPP_mlTnQG-116">
          <mxGeometry y="90" width="120" height="80" as="geometry" />
        </mxCell>
        <mxCell id="um6rf0IN5SyPP_mlTnQG-27" style="edgeStyle=none;curved=1;rounded=0;orthogonalLoop=1;jettySize=auto;html=1;fontSize=12;startSize=8;endSize=8;entryX=1;entryY=0;entryDx=0;entryDy=0;" edge="1" parent="um6rf0IN5SyPP_mlTnQG-116" source="um6rf0IN5SyPP_mlTnQG-21" target="um6rf0IN5SyPP_mlTnQG-18">
          <mxGeometry relative="1" as="geometry">
            <mxPoint x="357" y="240" as="targetPoint" />
          </mxGeometry>
        </mxCell>
        <mxCell id="um6rf0IN5SyPP_mlTnQG-21" value="dataHora" style="ellipse;whiteSpace=wrap;html=1;" vertex="1" parent="um6rf0IN5SyPP_mlTnQG-116">
          <mxGeometry x="535" y="130" width="120" height="80" as="geometry" />
        </mxCell>
        <mxCell id="um6rf0IN5SyPP_mlTnQG-28" style="edgeStyle=none;curved=1;rounded=0;orthogonalLoop=1;jettySize=auto;html=1;entryX=0.5;entryY=0;entryDx=0;entryDy=0;fontSize=12;startSize=8;endSize=8;exitX=0.5;exitY=1;exitDx=0;exitDy=0;" edge="1" parent="um6rf0IN5SyPP_mlTnQG-116" source="um6rf0IN5SyPP_mlTnQG-22" target="um6rf0IN5SyPP_mlTnQG-18">
          <mxGeometry relative="1" as="geometry">
            <mxPoint x="380" y="120" as="sourcePoint" />
          </mxGeometry>
        </mxCell>
        <mxCell id="um6rf0IN5SyPP_mlTnQG-22" value="tipo" style="ellipse;whiteSpace=wrap;html=1;" vertex="1" parent="um6rf0IN5SyPP_mlTnQG-116">
          <mxGeometry x="270" width="120" height="80" as="geometry" />
        </mxCell>
        <mxCell id="um6rf0IN5SyPP_mlTnQG-25" style="edgeStyle=none;curved=1;rounded=0;orthogonalLoop=1;jettySize=auto;html=1;fontSize=12;startSize=8;endSize=8;" edge="1" parent="um6rf0IN5SyPP_mlTnQG-116" source="um6rf0IN5SyPP_mlTnQG-23" target="um6rf0IN5SyPP_mlTnQG-18">
          <mxGeometry relative="1" as="geometry" />
        </mxCell>
        <mxCell id="um6rf0IN5SyPP_mlTnQG-23" value="quantidade" style="ellipse;whiteSpace=wrap;html=1;" vertex="1" parent="um6rf0IN5SyPP_mlTnQG-116">
          <mxGeometry x="445" width="120" height="80" as="geometry" />
        </mxCell>
        <mxCell id="um6rf0IN5SyPP_mlTnQG-26" style="edgeStyle=none;curved=1;rounded=0;orthogonalLoop=1;jettySize=auto;html=1;entryX=0;entryY=0.5;entryDx=0;entryDy=0;fontSize=12;startSize=8;endSize=8;" edge="1" parent="um6rf0IN5SyPP_mlTnQG-116" source="um6rf0IN5SyPP_mlTnQG-20" target="um6rf0IN5SyPP_mlTnQG-18">
          <mxGeometry relative="1" as="geometry" />
        </mxCell>
        <mxCell id="um6rf0IN5SyPP_mlTnQG-55" value="N" style="text;html=1;whiteSpace=wrap;strokeColor=none;fillColor=none;align=center;verticalAlign=middle;rounded=0;fontSize=16;" vertex="1" parent="um6rf0IN5SyPP_mlTnQG-116">
          <mxGeometry x="275" y="290" width="60" height="30" as="geometry" />
        </mxCell>
        <mxCell id="um6rf0IN5SyPP_mlTnQG-93" style="edgeStyle=none;curved=1;rounded=0;orthogonalLoop=1;jettySize=auto;html=1;entryX=0;entryY=0.5;entryDx=0;entryDy=0;fontSize=12;startSize=8;endSize=8;" edge="1" parent="1" source="um6rf0IN5SyPP_mlTnQG-43" target="um6rf0IN5SyPP_mlTnQG-44">
          <mxGeometry relative="1" as="geometry" />
        </mxCell>
        <mxCell id="um6rf0IN5SyPP_mlTnQG-43" value="idPedido FK" style="ellipse;whiteSpace=wrap;html=1;fontStyle=4" vertex="1" parent="1">
          <mxGeometry x="-350" y="505" width="120" height="80" as="geometry" />
        </mxCell>
        <mxCell id="um6rf0IN5SyPP_mlTnQG-44" value="Pagamento" style="rounded=0;whiteSpace=wrap;html=1;" vertex="1" parent="1">
          <mxGeometry x="-103.5" y="560" width="160" height="60" as="geometry" />
        </mxCell>
        <mxCell id="um6rf0IN5SyPP_mlTnQG-94" value="idPagamento" style="ellipse;whiteSpace=wrap;html=1;fontStyle=4" vertex="1" parent="1">
          <mxGeometry x="-360" y="630" width="120" height="80" as="geometry" />
        </mxCell>
        <mxCell id="um6rf0IN5SyPP_mlTnQG-95" value="valorPago" style="ellipse;whiteSpace=wrap;html=1;fontStyle=0" vertex="1" parent="1">
          <mxGeometry x="-230" y="750" width="120" height="80" as="geometry" />
        </mxCell>
        <mxCell id="um6rf0IN5SyPP_mlTnQG-96" value="dataHoraPagamento" style="ellipse;whiteSpace=wrap;html=1;fontStyle=0" vertex="1" parent="1">
          <mxGeometry x="-63.5" y="760" width="120" height="80" as="geometry" />
        </mxCell>
        <mxCell id="um6rf0IN5SyPP_mlTnQG-102" style="edgeStyle=none;curved=1;rounded=0;orthogonalLoop=1;jettySize=auto;html=1;entryX=0.25;entryY=0;entryDx=0;entryDy=0;fontSize=12;startSize=8;endSize=8;" edge="1" parent="1" source="um6rf0IN5SyPP_mlTnQG-97" target="um6rf0IN5SyPP_mlTnQG-44">
          <mxGeometry relative="1" as="geometry" />
        </mxCell>
        <mxCell id="um6rf0IN5SyPP_mlTnQG-97" value="statusPagamento" style="ellipse;whiteSpace=wrap;html=1;fontStyle=0" vertex="1" parent="1">
          <mxGeometry x="-260" y="390" width="120" height="80" as="geometry" />
        </mxCell>
        <mxCell id="um6rf0IN5SyPP_mlTnQG-99" style="edgeStyle=none;curved=1;rounded=0;orthogonalLoop=1;jettySize=auto;html=1;entryX=0.083;entryY=0.954;entryDx=0;entryDy=0;entryPerimeter=0;fontSize=12;startSize=8;endSize=8;" edge="1" parent="1" source="um6rf0IN5SyPP_mlTnQG-94" target="um6rf0IN5SyPP_mlTnQG-44">
          <mxGeometry relative="1" as="geometry" />
        </mxCell>
        <mxCell id="um6rf0IN5SyPP_mlTnQG-100" style="edgeStyle=none;curved=1;rounded=0;orthogonalLoop=1;jettySize=auto;html=1;entryX=0.375;entryY=1;entryDx=0;entryDy=0;entryPerimeter=0;fontSize=12;startSize=8;endSize=8;" edge="1" parent="1" source="um6rf0IN5SyPP_mlTnQG-95" target="um6rf0IN5SyPP_mlTnQG-44">
          <mxGeometry relative="1" as="geometry" />
        </mxCell>
        <mxCell id="um6rf0IN5SyPP_mlTnQG-101" style="edgeStyle=none;curved=1;rounded=0;orthogonalLoop=1;jettySize=auto;html=1;entryX=0.67;entryY=0.954;entryDx=0;entryDy=0;entryPerimeter=0;fontSize=12;startSize=8;endSize=8;" edge="1" parent="1" source="um6rf0IN5SyPP_mlTnQG-96" target="um6rf0IN5SyPP_mlTnQG-44">
          <mxGeometry relative="1" as="geometry" />
        </mxCell>
        <mxCell id="um6rf0IN5SyPP_mlTnQG-114" value="1" style="text;html=1;whiteSpace=wrap;strokeColor=none;fillColor=none;align=center;verticalAlign=middle;rounded=0;fontSize=16;" vertex="1" parent="1">
          <mxGeometry x="70" y="560" width="60" height="30" as="geometry" />
        </mxCell>
        <mxCell id="d5WgG2kgld3kzEVCsPHN-1" value="Cliente" style="rounded=0;whiteSpace=wrap;html=1;" parent="1" vertex="1">
          <mxGeometry x="100" y="60" width="120" height="60" as="geometry" />
        </mxCell>
        <mxCell id="um6rf0IN5SyPP_mlTnQG-8" style="edgeStyle=none;curved=1;rounded=0;orthogonalLoop=1;jettySize=auto;html=1;fontSize=12;startSize=8;endSize=8;" edge="1" parent="1" source="um6rf0IN5SyPP_mlTnQG-1" target="d5WgG2kgld3kzEVCsPHN-1">
          <mxGeometry relative="1" as="geometry" />
        </mxCell>
        <mxCell id="um6rf0IN5SyPP_mlTnQG-1" value="nomeCliente" style="ellipse;whiteSpace=wrap;html=1;" vertex="1" parent="1">
          <mxGeometry x="190" y="-50" width="120" height="80" as="geometry" />
        </mxCell>
        <mxCell id="um6rf0IN5SyPP_mlTnQG-7" style="edgeStyle=none;curved=1;rounded=0;orthogonalLoop=1;jettySize=auto;html=1;fontSize=12;startSize=8;endSize=8;" edge="1" parent="1" source="um6rf0IN5SyPP_mlTnQG-2" target="d5WgG2kgld3kzEVCsPHN-1">
          <mxGeometry relative="1" as="geometry" />
        </mxCell>
        <mxCell id="um6rf0IN5SyPP_mlTnQG-2" value="idCliente PK" style="ellipse;whiteSpace=wrap;html=1;fontStyle=4" vertex="1" parent="1">
          <mxGeometry x="-63.5" y="160" width="120" height="80" as="geometry" />
        </mxCell>
        <mxCell id="um6rf0IN5SyPP_mlTnQG-6" style="edgeStyle=none;curved=1;rounded=0;orthogonalLoop=1;jettySize=auto;html=1;fontSize=12;startSize=8;endSize=8;" edge="1" parent="1" source="um6rf0IN5SyPP_mlTnQG-3" target="d5WgG2kgld3kzEVCsPHN-1">
          <mxGeometry relative="1" as="geometry" />
        </mxCell>
        <mxCell id="um6rf0IN5SyPP_mlTnQG-3" value="cpf" style="ellipse;whiteSpace=wrap;html=1;" vertex="1" parent="1">
          <mxGeometry x="30" y="-90" width="120" height="80" as="geometry" />
        </mxCell>
        <mxCell id="um6rf0IN5SyPP_mlTnQG-5" style="edgeStyle=none;curved=1;rounded=0;orthogonalLoop=1;jettySize=auto;html=1;fontSize=12;startSize=8;endSize=8;" edge="1" parent="1" source="um6rf0IN5SyPP_mlTnQG-4" target="d5WgG2kgld3kzEVCsPHN-1">
          <mxGeometry relative="1" as="geometry" />
        </mxCell>
        <mxCell id="um6rf0IN5SyPP_mlTnQG-4" value="email" style="ellipse;whiteSpace=wrap;html=1;" vertex="1" parent="1">
          <mxGeometry x="-100" y="15" width="120" height="80" as="geometry" />
        </mxCell>
        <mxCell id="um6rf0IN5SyPP_mlTnQG-48" value="1" style="text;html=1;whiteSpace=wrap;strokeColor=none;fillColor=none;align=center;verticalAlign=middle;rounded=0;fontSize=16;" vertex="1" parent="1">
          <mxGeometry x="240" y="110" width="60" height="30" as="geometry" />
        </mxCell>
        <mxCell id="um6rf0IN5SyPP_mlTnQG-120" value="" style="group" vertex="1" connectable="0" parent="1">
          <mxGeometry x="1200" y="-180" width="410" height="390" as="geometry" />
        </mxCell>
        <mxCell id="um6rf0IN5SyPP_mlTnQG-29" value="Pedido_Pronto" style="rounded=0;whiteSpace=wrap;html=1;" vertex="1" parent="um6rf0IN5SyPP_mlTnQG-120">
          <mxGeometry x="31" y="160" width="160" height="60" as="geometry" />
        </mxCell>
        <mxCell id="um6rf0IN5SyPP_mlTnQG-37" style="edgeStyle=none;curved=1;rounded=0;orthogonalLoop=1;jettySize=auto;html=1;fontSize=12;startSize=8;endSize=8;" edge="1" parent="um6rf0IN5SyPP_mlTnQG-120" source="um6rf0IN5SyPP_mlTnQG-30" target="um6rf0IN5SyPP_mlTnQG-29">
          <mxGeometry relative="1" as="geometry" />
        </mxCell>
        <mxCell id="um6rf0IN5SyPP_mlTnQG-30" value="idPedidoPronto PK" style="ellipse;whiteSpace=wrap;html=1;fontStyle=4" vertex="1" parent="um6rf0IN5SyPP_mlTnQG-120">
          <mxGeometry x="100" y="310" width="120" height="80" as="geometry" />
        </mxCell>
        <mxCell id="um6rf0IN5SyPP_mlTnQG-42" style="edgeStyle=none;curved=1;rounded=0;orthogonalLoop=1;jettySize=auto;html=1;fontSize=12;startSize=8;endSize=8;" edge="1" parent="um6rf0IN5SyPP_mlTnQG-120" source="um6rf0IN5SyPP_mlTnQG-31" target="um6rf0IN5SyPP_mlTnQG-29">
          <mxGeometry relative="1" as="geometry" />
        </mxCell>
        <mxCell id="um6rf0IN5SyPP_mlTnQG-31" value="idProduto FK" style="ellipse;whiteSpace=wrap;html=1;fontStyle=4" vertex="1" parent="um6rf0IN5SyPP_mlTnQG-120">
          <mxGeometry width="120" height="80" as="geometry" />
        </mxCell>
        <mxCell id="um6rf0IN5SyPP_mlTnQG-41" style="edgeStyle=none;curved=1;rounded=0;orthogonalLoop=1;jettySize=auto;html=1;entryX=1;entryY=0;entryDx=0;entryDy=0;fontSize=12;startSize=8;endSize=8;" edge="1" parent="um6rf0IN5SyPP_mlTnQG-120" source="um6rf0IN5SyPP_mlTnQG-32" target="um6rf0IN5SyPP_mlTnQG-29">
          <mxGeometry relative="1" as="geometry" />
        </mxCell>
        <mxCell id="um6rf0IN5SyPP_mlTnQG-32" value="dataProducao" style="ellipse;whiteSpace=wrap;html=1;fontStyle=0" vertex="1" parent="um6rf0IN5SyPP_mlTnQG-120">
          <mxGeometry x="181" y="10" width="120" height="80" as="geometry" />
        </mxCell>
        <mxCell id="um6rf0IN5SyPP_mlTnQG-40" style="edgeStyle=none;curved=1;rounded=0;orthogonalLoop=1;jettySize=auto;html=1;entryX=1;entryY=0.5;entryDx=0;entryDy=0;fontSize=12;startSize=8;endSize=8;" edge="1" parent="um6rf0IN5SyPP_mlTnQG-120" source="um6rf0IN5SyPP_mlTnQG-33" target="um6rf0IN5SyPP_mlTnQG-29">
          <mxGeometry relative="1" as="geometry" />
        </mxCell>
        <mxCell id="um6rf0IN5SyPP_mlTnQG-33" value="validade" style="ellipse;whiteSpace=wrap;html=1;fontStyle=0" vertex="1" parent="um6rf0IN5SyPP_mlTnQG-120">
          <mxGeometry x="290" y="110" width="120" height="80" as="geometry" />
        </mxCell>
        <mxCell id="um6rf0IN5SyPP_mlTnQG-39" style="edgeStyle=none;curved=1;rounded=0;orthogonalLoop=1;jettySize=auto;html=1;fontSize=12;startSize=8;endSize=8;" edge="1" parent="um6rf0IN5SyPP_mlTnQG-120" source="um6rf0IN5SyPP_mlTnQG-34" target="um6rf0IN5SyPP_mlTnQG-29">
          <mxGeometry relative="1" as="geometry" />
        </mxCell>
        <mxCell id="um6rf0IN5SyPP_mlTnQG-38" style="edgeStyle=none;curved=1;rounded=0;orthogonalLoop=1;jettySize=auto;html=1;fontSize=12;startSize=8;endSize=8;" edge="1" parent="um6rf0IN5SyPP_mlTnQG-120" source="um6rf0IN5SyPP_mlTnQG-35" target="um6rf0IN5SyPP_mlTnQG-29">
          <mxGeometry relative="1" as="geometry" />
        </mxCell>
        <mxCell id="um6rf0IN5SyPP_mlTnQG-35" value="status" style="ellipse;whiteSpace=wrap;html=1;fontStyle=0" vertex="1" parent="um6rf0IN5SyPP_mlTnQG-120">
          <mxGeometry x="260" y="310" width="120" height="80" as="geometry" />
        </mxCell>
        <mxCell id="um6rf0IN5SyPP_mlTnQG-34" value="qtdeDisponivel" style="ellipse;whiteSpace=wrap;html=1;fontStyle=0" vertex="1" parent="um6rf0IN5SyPP_mlTnQG-120">
          <mxGeometry x="290" y="200" width="120" height="80" as="geometry" />
        </mxCell>
      </root>
    </mxGraphModel>
  </diagram>
</mxfile>
